<?xml version="1.0" standalone="no"?>
<!DOCTYPE svg PUBLIC "-//W3C//DTD SVG 20010904//EN"
 "http://www.w3.org/TR/2001/REC-SVG-20010904/DTD/svg10.dtd">
<svg version="1.0" xmlns="http://www.w3.org/2000/svg"
 width="16.000000pt" height="16.000000pt" viewBox="0 0 16.000000 16.000000"
 preserveAspectRatio="xMidYMid meet">
<metadata>
Created by potrace 1.11, written by Peter Selinger 2001-2013
</metadata>
<g transform="translate(0.000000,16.000000) scale(0.003125,-0.003125)"
fill="#000000" stroke="none">
<path d="M2409 5066 c-2 -2 -40 -6 -84 -10 -44 -3 -91 -8 -105 -10 -14 -3 -43
-7 -64 -11 -21 -3 -48 -7 -60 -10 -12 -3 -32 -7 -46 -9 -50 -9 -157 -36 -198
-50 -23 -9 -43 -15 -45 -15 -5 1 -35 -10 -130 -45 -106 -39 -290 -126 -372
-175 -27 -17 -63 -38 -80 -47 -16 -9 -32 -20 -35 -23 -3 -4 -18 -15 -35 -25
-37 -23 -174 -127 -217 -164 -354 -306 -623 -705 -760 -1127 -30 -95 -75 -266
-84 -325 -3 -19 -7 -46 -10 -60 -22 -124 -26 -179 -28 -385 -1 -208 8 -330 35
-460 6 -27 12 -62 14 -76 11 -80 96 -358 118 -387 5 -6 7 -12 4 -12 -8 0 32
-91 98 -222 54 -107 180 -310 196 -316 5 -2 9 -8 9 -14 0 -18 150 -196 245
-292 109 -109 167 -162 220 -201 22 -16 45 -34 50 -40 22 -25 246 -167 345
-219 165 -87 472 -206 531 -206 10 0 20 -4 24 -9 3 -6 13 -9 23 -9 18 1 60 -7
90 -16 30 -9 217 -35 304 -43 186 -15 473 -3 593 24 17 4 33 6 37 5 21 -5 322
72 408 105 8 3 20 7 25 9 99 26 521 245 533 276 2 4 8 8 13 8 6 0 15 5 22 10
7 6 46 36 87 66 119 89 237 197 354 325 68 74 226 282 226 297 0 6 4 12 8 14
10 4 72 105 72 117 0 5 3 11 8 13 13 6 101 186 147 303 52 131 74 200 108 340
24 96 29 120 43 210 37 237 36 570 -1 770 -2 11 -7 38 -10 60 -10 68 -55 245
-87 340 -173 525 -517 977 -986 1298 -46 31 -86 57 -88 57 -3 0 -29 16 -59 35
-30 19 -55 32 -55 29 0 -4 -7 -1 -15 6 -49 40 -419 193 -465 192 -3 0 -12 4
-20 8 -16 8 -219 55 -280 64 -19 3 -48 7 -65 10 -84 14 -146 18 -316 21 -103
3 -188 3 -190 1z"/>
</g>
</svg>
